<svg xmlns="http://www.w3.org/2000/svg" version="1.1" xmlns:xlink="http://www.w3.org/1999/xlink" xmlns:svgjs="http://svgjs.dev/svgjs" width="1000" height="1000" viewBox="0 0 1000 1000"><rect width="1000" height="1000" fill="#161618"></rect><g transform="matrix(0.7,0,0,0.7,150,150.00000000000006)"><svg viewBox="0 0 280 280" data-background-color="#161618" preserveAspectRatio="xMidYMid meet" height="1000" width="1000" xmlns="http://www.w3.org/2000/svg" xmlns:xlink="http://www.w3.org/1999/xlink"><g id="tight-bounds" transform="matrix(1,0,0,1,0,-2.842170943040401e-14)"><svg viewBox="0 0 280 280" height="280" width="280"><g><svg viewBox="0 0 280 280" height="280" width="280"><g transform="matrix(1,0,0,1,60.80404050710668,107.13177957275958)"><svg viewBox="0 0 158.39191898578665 65.73644085448083" height="65.73644085448083" width="158.39191898578665"><g><svg viewBox="0 0 158.39191898578665 65.73644085448083" height="65.73644085448083" width="158.39191898578665"><g><svg viewBox="0 0 158.39191898578665 65.73644085448083" height="65.73644085448083" width="158.39191898578665"><g id="textblocktransform"><svg viewBox="0 0 158.39191898578665 65.73644085448083" height="65.73644085448083" width="158.39191898578665" id="textblock"><g><svg viewBox="0 0 158.39191898578665 65.73644085448083" height="65.73644085448083" width="158.39191898578665"><path d="M158.021 14.099C157.276 7.276 155.154 5.379 155.154 5.379 148.639-1.649 140.507-0.134 133.202 0.875 120.305 0.916 107.46 2.418 94.593 3.223 67.585 3.346 40.347 1.326 13.473 6.307 10.948 7.835-2.619 6.607 0.449 14.973 1.253 18.453 4.187 22.315 4.098 25.508 4.5 26.067 5.058 24.785 5.297 25.59 6.131 27.76 7.493 26.736 8.61 28.019 7.054 31.444 8.171 34.297 9.236 37.285 7.359 38.063 4.954 37.695 3.874 40.274 3.763 42.143 3.159 41.789 2.497 41.707 2.013 41.652 1.037 41.857 1.201 42.444 1.76 44.45-0.638 45.61 0.866 47.575-0.169 49.704 1.581 51.546 1.343 53.852 1.313 54.316 1.477 54.712 1.737 54.821 2.891 55.408 1.209 56.555 1.387 57.796 13.227 66.285 26.072 60.417 38.202 64.32 41.352 61.59 38.984 65.289 40.242 64.715 41.225 64.047 41.94 66.817 43.05 65.248 43.221 64.797 42.96 63.733 43.571 63.937 43.891 64.047 44.174 64.019 44.219 63.392 44.286 62.45 43.697 63.037 43.541 62.545 45.231 60.062 44.814 65.971 46.4 65.725 46.326 65.002 45.864 63.965 46.81 64.101 47.748 63.064 47.778 62.204 48.612 64.538 48.642 65.043 48.791 65.398 49.029 65.643 51.635 63.105 54.227 66.544 56.959 65.398 58.635 64.142 60.243 66.08 61.941 65.602 62.537 65.22 63.14 64.538 63.713 65.684 70.735 65.93 78.219 64.906 84.876 65.725 102.665 64.197 121.675 66.353 140.433 64.333 144.856 63.555 149.45 62.45 153.762 61.563 153.762 61.563 157.254 59.134 157.254 48.216S157.999 38.664 158.11 29.97C158.222 21.277 158.743 20.923 157.999 14.099Z" opacity="1" fill="#ffffff" data-fill-palette-color="tertiary"></path><g transform="matrix(1,0,0,1,22.33326057699592,16.807142514602916)"><svg width="113.72539783179481" viewBox="-12.5 -31.25 110.63761263597081 31.25" height="32.122155825274994" data-palette-color="#161618"><g transform="matrix(1,0,0,1,0,0)"><g><svg width="14.525076107899809" viewBox="1.7799999713897705 -36.86000061035156 92 36.86000061035156" height="5.819000000000001" data-palette-color="#161618" id="scriptelement" x="83.612536528071" y="-31.25"><path d="M12.91-30.02L1.78-30.02 1.78-36.36 31.64-36.36 31.64-30.02 20.51-30.02 20.51 0 12.91 0 12.91-30.02ZM62.28 0L36.36 0 36.36-5.54 49.31-17.52Q50.96-19.12 52.08-20.4 53.21-21.68 53.8-22.91 54.38-24.15 54.38-25.59L54.38-25.59Q54.38-27.18 53.66-28.35 52.93-29.51 51.67-30.14 50.41-30.77 48.81-30.77L48.81-30.77Q47.14-30.77 45.9-30.1 44.65-29.42 43.98-28.16 43.3-26.9 43.3-25.16L43.3-25.16 36.01-25.16Q36.01-28.73 37.62-31.36 39.24-33.98 42.15-35.42 45.06-36.86 48.86-36.86L48.86-36.86Q52.77-36.86 55.67-35.48 58.57-34.11 60.19-31.68 61.81-29.24 61.81-26.1L61.81-26.1Q61.81-24.04 61-22.03 60.19-20.03 58.13-17.59 56.07-15.15 52.32-11.74L52.32-11.74 47.01-6.53 47.01-6.29 62.28-6.29 62.28 0ZM93.78 0L67.86 0 67.86-5.54 80.8-17.52Q82.45-19.12 83.58-20.4 84.71-21.68 85.29-22.91 85.88-24.15 85.88-25.59L85.88-25.59Q85.88-27.18 85.15-28.35 84.42-29.51 83.16-30.14 81.9-30.77 80.3-30.77L80.3-30.77Q78.63-30.77 77.39-30.1 76.15-29.42 75.47-28.16 74.8-26.9 74.8-25.16L74.8-25.16 67.5-25.16Q67.5-28.73 69.12-31.36 70.73-33.98 73.65-35.42 76.56-36.86 80.36-36.86L80.36-36.86Q84.26-36.86 87.17-35.48 90.07-34.11 91.69-31.68 93.3-29.24 93.3-26.1L93.3-26.1Q93.3-24.04 92.49-22.03 91.69-20.03 89.63-17.59 87.57-15.15 83.82-11.74L83.82-11.74 78.51-6.53 78.51-6.29 93.78-6.29 93.78 0Z" opacity="1" transform="matrix(1,0,0,1,0,0)" fill="#161618" class="undefined-123" id="p-123"></path></svg></g></g><path d="M15.7-31.25L30.7-31.25Q39.25-31.25 39.25-23.6L39.25-23.6Q39.25-20.45 38.3-17.6L38.3-17.6Q36.55-12.2 32.8-10.4L32.8-10.4 36.1 0 25.65 0 23.35-9.3 21.3-9.3 19.7 0 10.2 0 15.7-31.25ZM22.65-17L24.85-17Q26.55-17 27.43-17.38 28.3-17.75 28.63-19.53 28.95-21.3 28.95-21.7L28.95-21.7Q28.95-22.7 28.18-22.98 27.4-23.25 25.65-23.25L25.65-23.25 23.75-23.25 22.65-17ZM9.1-2.4L8.7-0.15-12.5-2.4 9.1-2.4ZM10.8-12.05L10.4-9.8-10.8-12.05 10.8-12.05ZM12.45-21.65L12.05-19.4-9.1-21.65 12.45-21.65ZM13.3-26.45L12.9-24.2-8.25-26.45 13.3-26.45ZM9.95-7.25L9.55-5-11.65-7.25 9.95-7.25ZM14.15-31.25L13.75-29-7.4-31.25 14.15-31.25ZM11.6-16.85L11.2-14.6-9.95-16.85 11.6-16.85ZM72.3-19.05L71-11.8 61.5-11.8 60.85-8 72.5-8 71.1 0 49.95 0 55.45-31.25 76.35-31.25 73.75-23.25 63.5-23.25 62.8-19.05 72.3-19.05ZM48.85-2.4L48.45-0.15 27.25-2.4 48.85-2.4ZM50.55-12.05L50.15-9.8 28.95-12.05 50.55-12.05ZM51.4-16.85L51-14.6 29.8-16.85 51.4-16.85ZM52.25-21.65L51.85-19.4 30.65-21.65 52.25-21.65ZM53.05-26.45L52.7-24.2 31.5-26.45 53.05-26.45ZM49.7-7.25L49.3-5 28.1-7.25 49.7-7.25ZM53.9-31.25L53.5-29 32.35-31.25 53.9-31.25Z" opacity="1" transform="matrix(1,0,0,1,0,0)" fill="#161618" class="undefined-text-0" data-fill-palette-color="quaternary" id="text-0"></path></svg></g></svg></g></svg></g></svg></g><g></g></svg></g></svg></g><path d="M109.866 248.443l13.426 2.637c5.101 1.002 7.204 3.784 6.307 8.346v0c-0.37 1.885-1.005 3.62-1.905 5.208v0c-1.679 3.018-3.742 4.843-6.191 5.475v0l1.128 9.891-9.36-1.839-0.423-8.725-1.838-0.361-3.063 8.04-8.501-1.67zM113.573 262.42l1.978 0.388c1.012 0.199 1.8 0.236 2.364 0.112 0.569-0.116 1.054-0.685 1.456-1.706 0.401-1.021 0.625-1.651 0.672-1.891v0c0.118-0.599-0.04-1.028-0.473-1.286-0.428-0.25-1.165-0.478-2.211-0.683v0l-1.698-0.334zM98.879 273.103l-0.746 1.949-18.583-5.747zM102.105 264.762l-0.756 1.948-18.583-5.747zM105.271 256.462l-0.756 1.947-18.533-5.737zM106.874 252.316l-0.756 1.947-18.533-5.737zM100.502 268.909l-0.756 1.947-18.583-5.747zM108.478 248.17l-0.757 1.947-18.533-5.737zM103.658 260.606l-0.746 1.95-18.543-5.739zM213.931 238.691l2.728 6.144-7.177 4.852 1.449 3.198 8.797-5.947 3.034 6.76-15.982 10.805-11.807-26.425 15.787-10.674 2.123 7.375-7.742 5.234 1.613 3.531zM204.719 263.254l0.857 1.903-17.176 9.13zM201.077 255.086l0.849 1.909-17.176 9.13zM199.267 251.027l0.848 1.909-17.176 9.129zM197.456 246.967l0.848 1.909-17.167 9.124zM195.611 242.93l0.882 1.886-17.167 9.124zM202.888 259.146l0.848 1.909-17.175 9.13zM193.8 238.87l0.848 1.909-17.133 9.101z" fill="#ffffff" data-fill-palette-color="accent"></path><path d="M87.513 2.909L100.939 0.271C106.04-0.731 109.039 1.048 109.935 5.61V5.61C110.305 7.495 110.374 9.342 110.142 11.151V11.151C109.729 14.58 108.51 17.05 106.483 18.562V18.562L111.269 27.291 101.909 29.13 98.216 21.213 96.378 21.574 96.585 30.176 88.084 31.846ZM96.233 14.444L98.211 14.055C99.223 13.857 99.967 13.593 100.442 13.264 100.924 12.941 101.158 12.231 101.144 11.134 101.129 10.038 101.098 9.369 101.05 9.13V9.13C100.933 8.53 100.624 8.193 100.126 8.118 99.635 8.049 98.866 8.117 97.821 8.322V8.322L96.123 8.656ZM86.673 29.893L86.72 31.979 67.344 33.69ZM86.504 20.952L86.541 23.04 67.165 24.751ZM86.294 12.07L86.331 14.159 67.005 15.86ZM86.21 7.626L86.246 9.714 66.92 11.416ZM86.588 25.396L86.625 27.485 67.249 29.196ZM86.125 3.181L86.162 5.27 66.836 6.971ZM86.369 16.517L86.416 18.603 67.08 20.307ZM203.871 36.12L199.186 40.941 192.009 36.088 189.582 38.625 198.378 44.572 193.235 49.906 177.254 39.101 197.377 18.298 213.164 28.972 207.111 33.691 199.369 28.456 196.694 31.268ZM177.645 36.724L176.198 38.228 161.326 25.691ZM183.867 30.301L182.412 31.799 167.54 19.262ZM186.96 27.108L185.505 28.606 170.633 16.069ZM190.053 23.915L188.597 25.413 173.734 12.882ZM193.112 20.699L191.69 22.22 176.827 9.689ZM180.774 33.494L179.319 34.992 164.447 22.455ZM196.204 17.506L194.749 19.004 179.919 6.496Z" fill="#ffffff" data-fill-palette-color="accent"></path><path d="M0.839 141.809c0-6.014 4.875-10.889 10.888-10.889 6.014 0 10.889 4.875 10.889 10.889 0 6.014-4.875 10.889-10.889 10.888-6.014 0-10.889-4.875-10.888-10.888zM257.384 141.809c0-6.014 4.875-10.889 10.889-10.889 6.014 0 10.889 4.875 10.888 10.889 0 6.014-4.875 10.889-10.888 10.888-6.014 0-10.889-4.875-10.889-10.888z" fill="#ffffff" data-fill-palette-color="accent"></path></svg></g><defs></defs></svg><rect width="280" height="280" fill="none" stroke="none" visibility="hidden"></rect></g></svg></g></svg>